<?xml version="1.0" encoding="UTF-8"?>
<svg viewBox="0 0 400 400" xmlns="http://www.w3.org/2000/svg">
  <!-- Background -->
  <rect width="400" height="400" fill="none"/>
  
  <!-- Laptop -->
  <rect x="50" y="200" width="300" height="180" rx="10" fill="#2D2B55"/>
  <rect x="70" y="220" width="260" height="140" fill="#1E1E3F"/>
  
  <!-- Character -->
  <g transform="translate(150, 150)">
    <!-- Hoodie -->
    <path d="M40,100 Q50,90 60,100 L80,150 L20,150 L40,100" fill="#A177FE"/>
    <path d="M20,150 Q50,160 80,150" fill="#8E5FFE"/>
    
    <!-- Face -->
    <circle cx="50" cy="80" r="30" fill="#FFD7B5"/>
    
    <!-- Glasses -->
    <rect x="35" y="75" width="30" height="12" rx="6" fill="#2D2B55"/>
    <line x1="35" y1="81" x2="65" y2="81" stroke="#A177FE" stroke-width="2"/>
    
    <!-- Hood -->
    <path d="M20,100 Q50,110 80,100 Q65,80 50,80 Q35,80 20,100" fill="#8E5FFE"/>
  </g>
  
  <!-- Code on Screen -->
  <g transform="translate(90, 240)">
    <text font-family="monospace" font-size="8" fill="#A177FE" y="20">import pandas as pd</text>
    <text font-family="monospace" font-size="8" fill="#8E5FFE" y="35">def analyze_finance():</text>
    <text font-family="monospace" font-size="8" fill="#ffffff" y="50">    return analysis</text>
  </g>
</svg>
